<?xml version="1.0" standalone="no"?>
<!DOCTYPE svg PUBLIC "-//W3C//DTD SVG 1.1//EN" "http://www.w3.org/Graphics/SVG/1.1/DTD/svg11.dtd">
<svg xmlns="http://www.w3.org/2000/svg">
<metadata>Generated by Fontastic.me</metadata>
<defs>
<font id="editionguard" horiz-adv-x="512">
<font-face font-family="editionguard" units-per-em="512" ascent="480" descent="-32"/>
<missing-glyph horiz-adv-x="512" />

<glyph glyph-name="check" unicode="&#97;" d="M456 431c-12-1-22-5-30-13l-242-242-94 93c-10 11-26 16-41 12-15-4-27-16-31-30-3-15 1-31 12-42l124-124c17-16 44-16 60 0l273 273c12 12 16 31 9 47-7 16-23 26-40 26z"/>
<glyph glyph-name="home" unicode="&#98;" d="M87 229c-11 0-19-8-18-18l0-168c0-10 8-18 18-18l122 0c10 0 18 8 18 18l0 122c0 7 5 12 12 12l31 0c7 0 12-5 12-12l0-122c0-10 8-18 18-18l122 0c10 0 18 8 18 18l0 168c0 6-3 12-9 16-5 3-12 3-18 0-6-4-9-10-9-16l0-150-86 0 0 104c0 27-22 49-48 49l-31 0c-27 0-49-22-49-49l0-104-85 0 0 150c0 5-2 9-5 13-4 3-9 5-13 5z m167 246c-12 0-25-4-34-14l-207-207c-7-7-7-19 0-26 7-7 19-7 26 0l207 207c5 5 12 5 17 0l207-207c7-7 19-7 26 0 7 7 7 19 0 26l-207 207c-10 10-22 14-35 14z"/>
<glyph glyph-name="downloads" unicode="&#99;" d="M371 288c-81 0-147-66-147-147 0-81 66-147 147-147 81 0 147 66 147 147 0 81-66 147-147 147z m0-38c61 0 109-49 109-109 0-61-48-109-109-109-60 0-109 48-109 109 0 60 49 109 109 109z m0-26c-11 0-19-9-19-19l0-128c0-7 4-14 10-17 6-4 13-4 19 0 6 3 9 10 9 17l0 128c0 5-2 10-5 14-4 3-9 5-14 5z m-48-80c-8 0-15-5-18-12-3-7-1-15 5-21l48-48c7-7 19-7 27 0 7 8 7 20 0 27l-48 48c-4 4-9 6-14 6z m96 0c-5 0-10-2-13-6l-48-48c-8-7-8-19 0-27 7-7 19-7 27 0l48 48c6 6 7 14 4 22-3 7-10 11-18 11z m-336 240c-7 0-13-4-17-10-3-6-3-13 0-19 4-6 10-9 17-9l224 0c7 0 14 3 17 9 4 6 4 13 0 19-3 6-10 10-17 10z m0-96c-7 0-13-4-17-10-3-6-3-13 0-19 4-6 10-9 17-9l128 0c7 0 14 3 17 9 4 6 4 13 0 19-3 6-10 10-17 10z m0-96c-7 0-13-4-17-10-3-6-3-13 0-19 4-6 10-9 17-9l80 0c7 0 14 3 17 9 4 6 4 13 0 19-3 6-10 10-17 10z m-32 320c-28 0-51-23-51-51l0-352c0-28 23-51 51-51l112 0c7 0 14 3 17 9 4 6 4 13 0 19-3 6-10 10-17 10l-112 0c-7 0-13 6-13 13l0 352c0 7 6 13 13 13l227 0c3 0 7-2 9-4l61-61c3-3 4-6 4-9l0-51c0-7 4-14 10-17 6-4 13-4 19 0 6 3 9 10 9 17l0 51c0 0 0 0 0 0 0 13-5 26-15 36l-61 61c-9 10-22 15-36 15 0 0 0 0 0 0z"/>
<glyph glyph-name="assets" unicode="&#100;" d="M384 509c0 0-1 0-2 0l-259-46c0 0 0 0 0 0-21-4-37-15-46-30-5-7-3-16-4-24-3-4-5-8-5-12l0-334c0-37 30-67 67-67 0 0 0 0 0 0 4 0 8 1 11 1l1 0 209 38c46 8 79 48 79 95l0 233c0 0 0 1 0 1 0 27-25 48-52 43 0 0 0 0 0 0l-242-43c0 0 0 0-1 0-12-2-20 0-26 5-7 5-11 13-13 22l0 1c-1 8 0 17 4 24 5 6 11 12 24 14 0 0 0 0 0 0l259 46c8 2 14 9 13 18 0 9-8 16-17 15z m5-134c7 1 13-4 13-12l0-233c0-31-22-57-52-62l-209-38c0 0-1 0-1 0-1 0-3 0-5 0 0 0 0 0 0 0-19 0-34 14-34 33l0 276c13-7 29-11 46-8z m-40 128c-6 0-11-3-14-8-3-5-4-11-1-16l48-96c4-8 14-11 22-7 8 4 12 14 8 22l-48 96c-3 5-9 9-15 9z"/>
<glyph glyph-name="api" unicode="&#101;" d="M54 486c-30 0-54-24-54-53 0 0 0 0 0 0l0-350c0-28 23-51 51-51l414 0c29 0 53 24 53 54l0 347c0 0 0 0 0 0 0 29-24 53-53 53 0 0 0 0 0 0l-411 0c0 0 0 0 0 0z m0-38l411 0c8 0 15-7 15-15l0-347c0-9-7-16-15-16l-414 0c-7 0-13 6-13 13l0 350c0 8 7 15 16 15z m-35-58c-7 0-13-3-17-9-3-6-3-14 0-19 4-6 10-10 17-10l480 0c7 0 14 4 17 10 4 5 4 13 0 19-3 6-10 9-17 9z m256-160c-7 0-13-3-17-9-3-6-3-14 0-19 4-6 10-10 17-10l96 0c7 0 14 4 17 10 4 5 4 13 0 19-3 6-10 9-17 9z m-128 65c-8 0-15-5-18-12-3-8-1-16 5-21l50-51-50-50c-8-8-8-20 0-27 7-8 19-8 27 0l64 64c3 3 5 8 5 13 0 5-2 10-5 14l-64 64c-4 4-9 6-14 6z"/>
<glyph glyph-name="reports" unicode="&#102;" d="M291 512c-11 0-20-9-20-19l0-192c0-11 9-19 20-19l192 0c10 0 19 8 19 19 0 116-95 211-211 211z m19-42c79-9 140-70 150-150l-150 0z m-83-54c-145 0-247-144-200-280 47-137 216-187 330-97 9 6 10 18 3 27l-114 145 0 186c0 10-9 19-19 19z m-20-43l0-168c0-4 2-9 5-12l103-132c-92-57-215-19-252 87-36 106 37 212 144 225z m84-117c-8 0-14-4-18-11-3-6-2-14 3-20l118-151c7-8 19-10 27-3 51 40 81 101 81 166 0 10-9 19-19 19z m39-38l129 0c-4-39-21-74-49-102z"/>
<glyph glyph-name="books" unicode="&#103;" d="M154 512c-13 0-27-5-36-15-10-10-15-23-15-36l0-309c0-13 5-26 15-36 9-10 23-15 36-15l308 0c14 0 27 5 37 15 9 10 15 23 15 36l0 309c0 13-6 26-15 36-10 10-23 15-37 15z m0-51l129 0 0-206-65 38-64-38z m-154-52l0-359c0-29 23-52 51-52l360 0 0 52-360 0 0 359z"/>
<glyph glyph-name="pen" unicode="&#104;" d="M329 76c8 8 11 19 9 30l-11 79 70 70-124 238 0-162c15-9 22-27 18-43-5-17-20-29-37-29-18 0-33 12-37 29-5 16 3 34 18 43l0 162-125-238 71-71-7-78c-2-11 1-22 9-30 7-8 17-13 28-13l90 0c11 0 21 5 28 13z m-28 24l-90 0 0 1 7 71 73 1z"/>
<glyph glyph-name="lock" unicode="&#105;" d="M262 512c-39 0-76-15-103-43-28-27-43-64-43-103l0-24c-27 0-49-22-49-49l0-242c0-27 22-49 49-49l291 0c27 0 49 22 49 49l0 242c0 27-22 49-49 49l0 24c1 39-15 76-42 103-28 28-65 43-103 43z m0-49c26 1 51-9 69-27 18-19 28-44 28-70l0-24-194 0 0 24c-1 26 9 51 27 70 19 18 44 28 70 27z m0-242c26 0 48-22 48-49 0-27-22-48-48-48-27 0-49 21-49 48 0 27 22 48 49 49z"/>
<glyph glyph-name="external-link" unicode="&#106;" d="M453 200l0-141c0-32-25-57-56-57l-340 0c-32 0-57 25-57 57l0 340c0 31 25 56 57 56l141 0 0-56-141 0 0-340 340 0 0 141z m0 215l-206-207-40 41 206 206-130 0 0 57 227 0 0-227-57 0z"/>
<glyph glyph-name="check-file" unicode="&#107;" d="M61 512c-26 0-47-21-47-47l0-376c0-26 21-47 47-47l120 0c-38 65-33 147 13 208 45 60 123 87 196 68l0 53-141 141z m165-35l129-130-129 0z m117-200c-78 0-141-63-141-141 0-78 63-141 141-141 78 0 141 63 141 141 0 78-63 141-141 141z m66-78l33-33-110-110-76 75 33 33 43-42z"/>
<glyph glyph-name="link" unicode="&#108;" d="M79 244c-44-43-44-114 0-157 43-43 114-43 157 0l63 63-31 31-63-63c-26-26-69-26-95 0-26 27-26 69 0 95l63 63-31 31z m126 126l31-31 63 63c26 26 68 26 95 0 26-26 26-69 0-95l-63-63 31-31 63 63c43 43 43 114 0 157-43 44-114 44-157 0z m-48-173l32-31 157 157-31 32z"/>
<glyph glyph-name="magazine" unicode="&#109;" d="M137 512c-40 0-73-33-73-73l0-363c0-40 33-72 73-73l315 0 0 49-315 0c-14 0-25 11-25 24 0 13 11 24 25 24l315 0 0 364-253 0c-8 27-33 47-62 48z m0-48c6 0 12-3 17-7 4-5 7-11 7-18l0-290-24 0c-9 0-17-2-25-5l0 295c0 7 3 13 7 18 5 4 11 7 18 7z m97-73l145 0 0-49-145 0z m0-97l145 0 0-48-145 0z"/>
<glyph glyph-name="advertisement-page" unicode="&#110;" d="M57 512c-32 0-57-25-57-57l0-333 57 56 0 221 397 0 0-341-277 0-57-57 334 0c31 0 57 26 57 57l0 397c0 32-26 57-57 57z m66-227l60-60-177-177 41-40 177 177 60-61 0 161z"/>
<glyph glyph-name="analyze" unicode="&#111;" d="M74 512c-26 0-47-21-47-47l0-376c0-26 21-47 47-47l130 0c-11 14-20 30-26 47l-104 0 0 376 282 0 0-142 47-9 0 151c0 26-21 47-47 47z m47-118l0-47 188 0 0 47z m0-94l0-47 83 0c14 20 32 36 53 47z m223-23c-71 0-129-58-129-129 0-5 0-10 1-15 5-45 33-84 75-103 41-19 89-15 127 11l45-45 33 33-45 45c27 40 30 91 8 134-22 42-67 69-115 69z m12-48c42-6 73-43 71-85-2-43-36-77-79-79-42-2-79 29-85 71l93 0z m-235-23l0-47 48 0c0 16 4 32 9 47z"/>
<glyph glyph-name="api-1" unicode="&#112;" d="M46 427c-25 0-46-21-46-47l0-254c0-26 21-46 46-46l417 0c25 0 46 20 46 46l0 254c0 26-21 47-46 47z m124-116l30 0 31-116-24 0-6 23-32 0-6-23-24 0z m85 0l34 0c19 0 35-16 35-35 0-19-16-34-35-34l-11 0 0-47-23 0z m92 0l23 0 0-116-23 0z m-69-23l0-23 11 0c7 0 12 5 12 11 0 7-5 12-12 12z m-93-8l-10-38 20 0z"/>
<glyph glyph-name="apply" unicode="&#113;" d="M222 512c-55 0-99-44-99-99 0-54 44-98 99-98 54 0 98 44 98 98 0 55-44 99-98 99z m148-222c-69 0-129-48-144-115l-4-4-63 63c-74-13-159-48-159-104l0-62 242 0c36-62 111-89 179-64 67 24 107 94 94 164-12 71-74 122-145 122z m0-49c23 0 46-9 64-24l-64-65-32 32-35-35 67-66 92 92c15-40 1-85-33-111-34-26-81-27-116-2-35 25-50 69-37 110 13 41 51 69 94 69z"/>
<glyph glyph-name="change-theme" unicode="&#114;" d="M57 512c-31 0-57-26-57-57l0-283 113 0 0-171 398 0 0 284c-1 31-26 57-57 57l-57 0 0 113c0 32-25 57-57 57z m0-113l283 0 0-57-170 0c-31 0-56-26-57-57l0-57-56 0z m113-114l284 0 0-57-284 0z"/>
<glyph glyph-name="accounting" unicode="&#115;" d="M226 512c-28 0-53-18-63-45l-93 0c-24 0-44-19-44-44l0-312c0-24 20-44 44-44l156 0 0 200c0 37 30 67 67 67l133 0 0 89c0 25-20 44-44 44l-93 0c-10 27-35 45-63 45z m0-45c12 0 22-9 22-22 0-12-10-22-22-22-12 0-22 10-22 22 0 13 10 22 22 22z m67-178c-13 0-23-10-23-22l0-245c0-12 10-22 23-22l178 0c12 0 22 10 22 22l0 245c0 12-10 22-22 22z m22-44l134 0 0-45-134 0z m22-89c13 0 23-10 23-23 0-12-10-22-23-22-12 0-22 10-22 22 0 6 2 12 6 16 5 4 10 7 16 7z m89 0c13 0 23-10 23-23 0-12-10-22-23-22-12 0-22 10-22 22 0 6 2 12 7 16 4 4 9 7 15 7z m-89-67c13 0 23-10 23-22 0-13-10-23-23-23-12 0-22 10-22 23 0 6 2 11 6 15 5 5 10 7 16 7z m89 0c13 0 23-10 23-22 0-13-10-23-23-23-12 0-22 10-22 23 0 6 2 11 7 15 4 5 9 7 15 7z"/>
<glyph glyph-name="book" unicode="&#116;" d="M454 472l-389 0c-36 0-65-20-65-44l0-350c0-25 29-44 65-44l389 0c36 0 65 20 65 44l0 350c0 24-29 44-65 44z m-227-219l-81 33-81-33 0 175 162 0z"/>
<glyph glyph-name="note" unicode="&#117;" d="M448 512l-392 0c-31 0-56-25-56-56l0-392c0-31 25-56 56-56l280 0 168 168 0 280c0 15-6 29-16 40-11 10-25 16-40 16z m-336-112l280 0 0-56-280 0z m140-168l-140 0 0 56 140 0z m56-182l0 154 154 0z"/>
<glyph glyph-name="news" unicode="&#118;" d="M0 486l0-384c0-42 34-76 77-76l358 0c43 0 77 34 77 76l0 282-51 0 0-282c0-6-3-13-8-18-4-5-11-7-18-7-14 0-25 11-25 25l0 384z m102-76l205 0 0-77-205 0z m0-154l205 0 0-51-205 0z m0-102l205 0 0-52-205 0z"/>
<glyph glyph-name="leanpub" unicode="&#119;" d="M172 448c-40-2-79-13-115-31l-19-11-30-261-8-69 63 27c35 14 72 22 110 23 22-2 43-9 61-20l22-14 21 14c19 11 40 19 62 21 38-2 75-10 110-24l63-27-38 330-19 11c-36 18-75 29-115 31-29 0-58-8-84-22-26 14-55 22-84 22z m0-50c25-1 49-8 70-22l14-8 14 8c21 14 45 21 70 22 30-2 60-10 87-24l26-219c-37 13-75 21-114 22-29-2-58-11-83-25-25 14-54 23-83 25-39-1-77-9-114-22l26 219c27 14 57 22 87 24z m0-26c-22-1-43-6-63-15l-19-166c27 7 55 11 84 11 29-1 57-8 83-21 26 13 54 20 83 21 6 0 11 0 17 0l-19 170c-19-1-38-7-55-18l-26-16-27 16c-18 12-38 18-58 18z"/>
<glyph glyph-name="e-learning" unicode="&#120;" d="M77 469c-28 0-51-22-51-50l0-215c0-28 23-50 51-50l372 0c28 0 51 22 51 50l0 215c0 28-23 50-51 50z m55-79l262 0 0-52-262 0z m0-105l184 0 0-52-184 0z m-132-184l0-52 526 0 0 52z"/>
<glyph glyph-name="data-quality" unicode="&#121;" d="M456 512l-142 0c0-32-26-57-57-57-32 0-57 25-57 57l-143 0c-31 0-57-26-57-57l0-399c0-32 26-57 57-57l399 0c32 0 57 25 57 57l0 399c0 31-25 57-57 57z m-228-383l-114 114 40 41 74-74 137 137 40-41z"/>
<glyph glyph-name="customer-support" unicode="&#122;" d="M489 254l-48 76c-11 95-85 170-179 182l0-186c16-9 26-26 26-44 0-4-1-9-2-13l64-64c1 0 1 0 2 0 21 0 39-18 38-39 0-21-17-38-38-38-22 0-39 17-39 38 0 1 0 2 0 2l-64 64c-15-4-32-1-45 9-12 10-20 25-19 41 0 19 9 35 25 45l0 185c-103-13-180-100-180-204 0-129 77-114 77-238l0-71 232 0 0 77 52 0c13 0 26 5 36 15 10 10 15 23 15 37l0 76 37 16c6 2 11 8 13 14 2 7 1 14-3 20z"/>
<glyph glyph-name="rules" unicode="&#65;" d="M77 484c-42-1-77-35-77-77l0-77 77 0 0-231c0-42 34-76 77-77l282 0c42 1 76 35 76 77l0 77-102 0 0 231c0 42-35 76-77 77z m0-52l190 0c-4-8-11-15-11-25l0-26-205 0 0 26c0 7 3 13 8 18 4 5 11 7 18 7z m77-153l179 0 0-52-179 0z m0-103l179 0 0-51-179 0z m256-51l51 0 0-26c0-9-4-18-12-23-8-4-19-4-27 0-8 5-12 14-12 23z"/>
<glyph glyph-name="handshake" unicode="&#66;" d="M307 472c-7 0-15-2-22-5l-123-57 15-29c12-23 39-33 63-24l67 24 138-134c10-10 16-23 16-37l0-20 51 0 0 256-77-26-106 47c-7 3-14 5-22 5z m-307-26l0-256 26 0 155-136c28-24 70-23 96 3l108 109c13 13 20 30 21 48l-112 108-37-13c-48-18-102 3-126 48l-15 29c-6 12-7 27-3 40 3 8 7 15 13 20z"/>
<glyph glyph-name="student-male" unicode="&#67;" d="M257 494l-257-107 86-36 0-112c-13-11-21-28-22-45 1-25 18-47 42-56 28-66 83-115 151-115 67 0 123 49 151 115 24 9 40 31 41 56 0 17-8 34-21 45l0 112 43 18 0-111 43 0 0 129z m-107-214l214 0c12 0 21-10 21-22l0-39 11-6c7-4 11-11 10-19 1-10-7-20-18-21l-12-2-5-11c-22-58-66-94-114-94-49 0-92 36-114 94l-5 11-13 2c-10 2-18 11-18 21 0 8 4 15 11 19l10 6 0 39c0 12 10 22 22 22z"/>
<glyph glyph-name="read" unicode="&#68;" d="M353 469c-42 0-76-34-76-75l0-278-50 0 0 278c0 41-34 75-76 75l-151 0 0-353c0-13 5-26 15-35 9-10 22-15 35-15l159 0c9-16 25-25 43-25 18 0 35 9 44 25l158 0c13 0 26 5 36 15 9 9 14 22 14 35l0 353z"/>
<glyph glyph-name="training" unicode="&#69;" d="M97 512c-28 0-51-23-51-52 0-28 23-52 51-52 29 0 52 24 52 52 0 29-23 52-52 52z m104-26l0-52 233 0 0-233-207 0 0-52 61 0 66-155 56 0-66 155 103 0c21 1 39 18 39 39l0 259c0 22-18 39-39 39z m-130-103c-28 0-51-24-51-52l0-337 51 0 0 155 52 0 0-155 52 0 0 337 155 0 0 52z"/>
<glyph glyph-name="user-male" unicode="&#70;" d="M252 512c-110 0-200-90-200-200l0-48c-15-13-24-32-25-53 1-29 20-55 49-65 32-78 97-135 176-135 79 0 144 57 177 135 28 10 48 36 49 66-1 20-10 39-25 52l0 48c0 110-90 200-201 200z m-125-200l251 0c13 0 25-12 25-25l0-47 12-7c8-4 13-13 13-22 0-12-10-23-22-24l-15-2-5-14c-26-67-77-110-134-110-56 0-108 43-133 110l-6 14-15 2c-12 1-21 12-21 24 0 9 5 18 12 22l13 7 0 47c0 6 3 13 7 17 5 5 11 8 18 8z"/>
<glyph glyph-name="versions" unicode="&#71;" d="M231 512c-32 0-58-26-58-58l0-403c0-32 26-58 58-58l230 0c32 0 58 26 58 58l0 403c0 32-26 58-58 58z m-87-29c-32 0-57-26-58-57l0-346c1-32 26-58 58-58z m-86-57c-32-1-58-26-58-58l0-231c0-31 26-57 58-57z"/>
<glyph glyph-name="voice-recognition" unicode="&#72;" d="M307 486c-29-1-51-23-52-52l0-229 77 76 128 0c28 0 51 23 51 51l0 102c0 29-23 51-51 52z m-179-154c-43 0-77-34-77-76 0-43 34-77 77-77 42 0 76 34 76 77 0 42-34 76-76 76z m0-179c-73 0-128-37-128-86l0-41 255 0 0 41c0 49-54 86-127 86z"/>
<glyph glyph-name="voip" unicode="&#73;" d="M95 512c-29 0-52-24-52-52l0-420c0-29 23-52 52-53l315 0c29 1 52 24 52 53l0 420c0 28-23 52-52 52z m41-79l60 0c8 0 15-6 15-14 0-9 1-19 2-28 1-8 4-16 6-24 2-5 0-11-4-15l-26-17c22-41 55-75 96-96l17 26c4 3 10 5 15 3 8-2 16-4 24-6 9-1 19-2 28-2 8 0 14-7 14-15l0-59c0-4-1-8-4-11-3-2-6-4-10-4-66 0-129 26-175 72-47 47-73 110-73 176 0 4 2 7 5 10 2 3 6 4 10 4z m-41-341l53 0 0-52-53 0z m105 0l210 0 0-52-210 0z"/>
<glyph glyph-name="webhook" unicode="&#74;" d="M244 485c-51-4-95-37-111-86-17-48-3-101 36-135l-43-73c-24 0-45-18-49-42-5-24 9-47 32-56 23-8 48 1 60 22 9 16 9 35 0 51l67 115-22 12c-36 21-48 67-27 103 21 36 67 49 103 28 36-21 48-67 28-103l44-25c23 40 22 90-3 130-24 39-69 62-115 59z m2-76c-7-1-13-3-19-6-24-14-32-45-18-70 9-15 25-25 43-25l66-115 23 13c36 21 82 8 103-28 20-36 8-82-28-103-36-21-82-9-103 27l-44-25c33-57 105-80 165-50 60 29 87 100 61 161-25 62-94 93-157 72l-42 73c9 17 9 38-2 54-10 15-29 24-48 22z m-120-143c-66 0-121-51-126-117-4-67 44-125 109-134 66-9 128 35 141 100l85 0c11-20 35-29 57-23 22 5 37 25 37 48 0 23-15 43-37 49-22 6-46-4-57-23l-133 0 0-26c0-41-34-75-76-75-42 0-76 34-76 75 0 42 34 76 76 76z"/>
<glyph glyph-name="arrow" unicode="&#75;" d="M65 99l-65 65 263 263 263-263-65-65-198 198z"/>
<glyph glyph-name="upload-ebook" unicode="&#76;" d="M332 290c-78 0-142-64-142-142 0-79 64-143 142-143 78 0 141 64 141 143 0 78-63 142-141 142z m0-21c66 0 120-54 120-121 0-68-54-122-120-122-67 0-121 54-121 122 0 67 54 121 121 121z m0-45c-6 0-11-5-11-10l0-132c0-4 2-8 5-9 4-2 8-2 11 0 3 1 5 5 5 9l0 132c0 2-1 5-3 7-2 2-5 3-7 3z m-1 0c-2 0-5-1-7-3l-49-50c-4-4-4-10 0-14 4-4 11-4 15 0l49 49c3 3 4 8 2 12-1 4-5 6-10 6z m1 0c-5 0-8-2-10-6-2-4-1-9 2-12l49-49c3-3 7-4 10-3 4 1 7 4 8 7 1 4 0 8-3 10l-49 50c-2 2-5 3-7 3z m16 286c0 0-2 0-2 0 0 0 0 0 0 0 0 0 0 0 0 0 0 0-1 0-1 0 0 0-1 0-2 0-1 0-4-1-7-1-6-1-15-3-25-5-21-3-50-8-79-13-59-11-120-22-139-27-29-5-51-29-51-59-1-6-1-25-1-55 0-29 0-66 1-105 0-76 0-154 0-170-1-38 35-68 72-60 0 0 1 0 1 0 34 5 69 12 69 12 5 1 9 6 8 12-1 6-7 9-12 8 0 0-35-7-69-11l0 0-1-1c-25-5-48 14-47 40l0 0c0 16-1 94-1 170 0 39 0 76 0 105 0 30 0 51 0 54l0 1c1 19 15 36 34 39l1 0 0 0c15 4 79 16 138 26 30 5 58 10 79 14 11 2 20 3 26 4 3 1 5 1 7 1 1 1 1 1 2 1 0 0 0 0 0 0 5 1 9 5 9 11-1 5-5 9-10 9z m0 0c-1 0-2 0-2 0 0 0-55-9-114-19-59-11-120-22-139-27-29-5-51-30-51-59 0 0 0 0 0 0 0 0 0 0 0 0-1-37 34-66 70-58l-1 0c23 3 79 13 132 22 26 5 51 10 71 13 20 4 35 6 38 7l0 0 0 0c9 1 18-5 18-15 0-15 0-45 0-45 0-4 2-7 5-9 3-2 7-2 11 0 3 2 5 5 5 9 0 0 0 31 0 46l0 0c-1 22-21 38-42 34-6 0-19-3-39-6-20-4-45-8-71-13-53-10-109-20-130-23l-1 0 0 0c-24-5-46 13-46 38l0 0c1 19 15 36 34 39l1 0 0 0c15 4 80 16 139 26 59 11 113 20 113 20 6 1 10 5 9 11 0 5-5 10-10 9z m-36-6c-4 0-7-1-9-4-2-4-2-7 0-11l45-90c2-5 9-8 14-5 5 3 7 9 4 14l-45 91c-1 3-5 5-9 5z"/>
<glyph glyph-name="sample-ebook" unicode="&#77;" d="M390 510c0 0-1 0-1 0l-155-28-106-19c0 0 0 0-1 0-19-3-33-13-41-27-6-9-8-19-8-30-1-1-1-2-1-3l0-337c0-33 28-61 61-61 0 0 0 0 0 0 4 0 7 1 11 1l211 38c44 8 75 46 75 90l0 236c0 23-22 42-45 38l-245-44c0 0 0 0 0 0-14-3-24 0-32 6-8 6-13 16-15 26-2 10 0 21 5 30 5 8 14 14 28 17 0 0 0 0 0 0l106 19 155 28c6 1 10 6 9 11 0 5-5 9-11 9z m4-123c11 2 21-6 21-17l0-236c0-34-25-63-58-69 0 0 0 0 0 0l-212-38c0 0 0 0 0 0-2-1-4-1-7-1 0 0 0 0 0 0-22 0-40 18-40 40l0 291c1-1 1-2 2-3 13-10 30-14 49-11z m-39 117c-4 0-7-2-9-5-2-3-2-7-1-10l48-96c3-6 9-8 14-5 5 3 7 9 5 14l-48 96c-2 4-5 6-9 6z"/>
<glyph glyph-name="info" unicode="&#79;" d="M256 512c-141 0-256-115-256-256 0-141 115-256 256-256 141 0 256 115 256 256 0 141-115 256-256 256z m0-20c130 0 236-106 236-236 0-130-106-236-236-236-130 0-236 106-236 236 0 130 106 236 236 236z m-12-112c-3 0-4-1-4-4l0-27c0-2 1-3 4-3l24 0c3 0 4 1 4 3l0 27c0 3-1 4-4 4z m-1-74c-1-1-2-2-2-4l0-168c0-2 1-4 3-4l24 0c2 0 3 2 3 4l0 168c0 3-1 4-3 4l-24 0c0 0-1 0-1 0z"/>
<glyph glyph-name="info-filled" unicode="&#80;" d="M256 512c-141 0-256-115-256-256 0-141 115-256 256-256 141 0 256 115 256 256 0 141-115 256-256 256z m15-378c0-2-1-4-3-4l-24 0c-2 0-3 2-3 4l0 168c0 3 1 4 3 4l24 0c2 0 3-1 3-4z m1 215c0-2-1-3-4-3l-24 0c-3 0-4 1-4 3l0 27c0 2 1 4 4 4l24 0c3 0 4-2 4-4z"/>
<glyph glyph-name="sort-down" unicode="&#81;" d="M149 299l107-107 107 107z"/>
<glyph glyph-name="multiply" unicode="&#82;" d="M148 379l-15-15 109-108-109-108 15-15 109 109 108-109 15 15-109 108 109 108-15 15-108-109z"/>
<glyph glyph-name="ico" unicode="&#78;" d="M332 290c-78 0-142-64-142-142 0-79 64-143 142-143 78 0 141 64 141 143 0 78-63 142-141 142z m0-21c66 0 120-54 120-121 0-68-54-122-120-122-67 0-121 54-121 122 0 67 54 121 121 121z m0-45c-6 0-11-5-11-10l0-132c0-4 2-8 5-9 4-2 8-2 11 0 3 1 5 5 5 9l0 132c0 2-1 5-3 7-2 2-5 3-7 3z m-1 0c-2 0-5-1-7-3l-49-50c-4-4-4-10 0-14 4-4 11-4 15 0l49 49c3 3 4 8 2 12-1 4-5 6-10 6z m1 0c-5 0-8-2-10-6-2-4-1-9 2-12l49-49c3-3 7-4 10-3 4 1 7 4 8 7 1 4 0 8-3 10l-49 50c-2 2-5 3-7 3z m16 286c0 0-2 0-2 0 0 0 0 0 0 0 0 0 0 0 0 0 0 0-1 0-1 0 0 0-1 0-2 0-1 0-4-1-7-1-6-1-15-3-25-5-21-3-50-8-79-13-59-11-120-22-139-27-29-5-51-29-51-59-1-6-1-25-1-55 0-29 0-66 1-105 0-76 0-154 0-170-1-38 35-68 72-60 0 0 1 0 1 0 34 5 69 12 69 12 5 1 9 6 8 12-1 6-7 9-12 8 0 0-35-7-69-11l0 0-1-1c-25-5-48 14-47 40l0 0c0 16-1 94-1 170 0 39 0 76 0 105 0 30 0 51 0 54l0 1c1 19 15 36 34 39l1 0 0 0c15 4 79 16 138 26 30 5 58 10 79 14 11 2 20 3 26 4 3 1 5 1 7 1 1 1 1 1 2 1 0 0 0 0 0 0 5 1 9 5 9 11-1 5-5 9-10 9z m0 0c-1 0-2 0-2 0 0 0-55-9-114-19-59-11-120-22-139-27-29-5-51-30-51-59 0 0 0 0 0 0 0 0 0 0 0 0-1-37 34-66 70-58l-1 0c23 3 79 13 132 22 26 5 51 10 71 13 20 4 35 6 38 7l0 0 0 0c9 1 18-5 18-15 0-15 0-45 0-45 0-4 2-7 5-9 3-2 7-2 11 0 3 2 5 5 5 9 0 0 0 31 0 46l0 0c-1 22-21 38-42 34-6 0-19-3-39-6-20-4-45-8-71-13-53-10-109-20-130-23l-1 0 0 0c-24-5-46 13-46 38l0 0c1 19 15 36 34 39l1 0 0 0c15 4 80 16 139 26 59 11 113 20 113 20 6 1 10 5 9 11 0 5-5 10-10 9z m-36-6c-4 0-7-1-9-4-2-4-2-7 0-11l45-90c2-5 9-8 14-5 5 3 7 9 4 14l-45 91c-1 3-5 5-9 5z"/>
<glyph glyph-name="ico-1" unicode="&#83;" d="M256 512c-141 0-256-115-256-256 0-141 115-256 256-256 141 0 256 115 256 256 0 141-115 256-256 256z m0-38c120 0 218-98 218-218 0-120-98-218-218-218-120 0-218 98-218 218 0 120 98 218 218 218z m-7-71c-64 0-116-52-116-116 0-64 52-117 116-117 65 0 117 53 117 117 0 64-52 116-117 116z m0-38c44 0 78-35 78-78 0-44-34-78-78-78-43 0-78 34-78 78 0 43 35 78 78 78z m7-212c-51 0-103-19-142-59-5-5-7-12-5-18 2-7 7-12 14-14 7-2 14 0 19 5 63 64 165 64 228 0 5-5 12-7 19-5 7 2 12 7 14 14 2 6 0 13-5 18-39 40-91 59-142 59z"/>
<glyph glyph-name="dots" unicode="&#85;" d="M102 256c0-28-23-51-51-51-28 0-51 23-51 51 0 28 23 51 51 51 28 0 51-23 51-51z m205 0c0-28-23-51-51-51-28 0-51 23-51 51 0 28 23 51 51 51 28 0 51-23 51-51z m205 0c0-28-23-51-51-51-28 0-51 23-51 51 0 28 23 51 51 51 28 0 51-23 51-51z"/>
</font>
</defs>
</svg>
